<?xml version="1.0" standalone="no"?>
<!DOCTYPE svg PUBLIC "-//W3C//DTD SVG 20010904//EN"
 "http://www.w3.org/TR/2001/REC-SVG-20010904/DTD/svg10.dtd">
<svg version="1.0" xmlns="http://www.w3.org/2000/svg"
 width="375.000000pt" height="375.000000pt" viewBox="0 0 375.000000 375.000000"
 preserveAspectRatio="xMidYMid meet">
<metadata>
Created by potrace 1.11, written by Peter Selinger 2001-2013
</metadata>
<g transform="translate(0.000000,375.000000) scale(0.100000,-0.100000)"
fill="#000000" stroke="none">
<path d="M810 3490 c0 -5 32 -138 70 -296 39 -157 70 -292 70 -300 0 -12 49
-14 298 -14 l298 0 -22 168 c-42 321 -52 394 -56 396 -3 3 -613 57 -640 56
-10 0 -18 -4 -18 -10z"/>
<path d="M1720 3388 c0 -7 5 -67 9 -133 5 -66 12 -169 16 -230 3 -60 8 -127
11 -147 6 -37 7 -38 47 -39 23 0 154 -6 290 -12 137 -7 250 -10 252 -7 5 9
-40 478 -46 485 -4 3 -121 23 -260 45 -140 22 -269 42 -286 45 -23 4 -33 2
-33 -7z"/>
<path d="M2525 3048 c4 -123 10 -226 14 -229 5 -5 300 -61 498 -96 l33 -5 -3
203 -2 204 -270 72 c-148 40 -272 72 -274 72 -2 1 0 -99 4 -221z"/>
<path d="M1000 2642 c0 -13 128 -594 132 -597 2 -2 25 1 51 6 48 9 301 41 425
54 45 5 62 11 62 22 0 16 -67 452 -76 495 l-5 27 -295 1 c-162 0 -294 -3 -294
-8z"/>
<path d="M1830 2628 c0 -14 61 -492 64 -495 2 -2 521 19 524 22 2 1 -4 83 -12
181 -9 99 -17 196 -18 218 -1 21 -7 40 -13 42 -13 4 -481 44 -517 44 -16 0
-28 -6 -28 -12z"/>
<path d="M655 2593 c-16 -2 -154 -17 -304 -34 -151 -16 -277 -31 -279 -34 -2
-2 7 -37 21 -77 58 -170 208 -592 210 -595 2 -1 48 10 103 26 112 33 267 71
397 100 49 10 90 21 93 23 7 7 -192 592 -202 593 -5 1 -22 0 -39 -2z"/>
<path d="M2584 2468 c4 -73 9 -175 12 -225 l6 -93 66 0 c83 -1 288 -9 365 -15
l57 -4 0 189 c0 105 -3 190 -8 190 -9 0 -449 78 -480 85 l-24 6 6 -133z"/>
<path d="M3280 2291 l0 -170 53 -5 c28 -3 108 -10 177 -16 69 -6 137 -13 153
-16 l27 -6 0 156 c0 139 -2 155 -17 160 -16 5 -376 66 -388 66 -3 0 -5 -76 -5
-169z"/>
<path d="M2580 1680 c0 -187 3 -238 13 -235 10 4 447 55 470 55 4 0 7 95 7
210 l0 210 -245 0 -245 0 0 -240z"/>
<path d="M2200 1860 c-113 -16 -213 -29 -222 -29 -17 -1 -18 -20 -18 -249 l0
-248 163 32 c89 18 195 37 235 44 l72 12 0 234 c0 181 -3 234 -12 233 -7 -1
-105 -14 -218 -29z"/>
<path d="M3213 1803 c4 -49 10 -134 13 -191 l7 -103 26 5 c14 3 85 8 156 11
72 3 154 8 183 11 l52 5 0 175 0 174 -221 0 -222 0 6 -87z"/>
<path d="M1440 1782 c-146 -25 -266 -46 -268 -48 -4 -2 117 -576 122 -582 3
-2 62 14 133 36 70 23 180 55 243 72 63 18 118 34 121 36 3 1 -9 119 -27 261
-18 142 -33 261 -34 266 0 9 13 11 -290 -41z"/>
<path d="M685 1585 c-137 -52 -254 -95 -258 -97 -7 -3 186 -644 197 -656 2 -2
55 26 118 62 62 36 167 90 233 121 66 30 121 59 123 65 7 20 -140 600 -152
599 -6 0 -123 -43 -261 -94z"/>
<path d="M2830 1264 c-80 -12 -160 -26 -177 -29 l-33 -6 0 -219 c0 -121 2
-220 4 -220 2 0 33 9 68 20 35 11 124 35 198 53 l135 34 3 197 2 196 -27 -1
c-16 -1 -93 -12 -173 -25z"/>
<path d="M2221 1145 c-117 -29 -216 -57 -220 -63 -3 -6 -1 -95 6 -199 6 -103
13 -217 15 -251 1 -35 6 -66 9 -68 4 -2 33 8 65 23 33 14 124 52 204 84 l145
58 3 236 c1 129 -1 235 -5 234 -5 -1 -104 -25 -222 -54z"/>
<path d="M1575 915 c-166 -75 -231 -109 -233 -122 -3 -19 102 -541 111 -549 3
-3 72 35 153 84 82 49 174 102 204 117 30 15 56 28 58 30 2 1 -27 364 -41 509
-2 17 -7 31 -13 32 -5 1 -112 -45 -239 -101z"/>
</g>
</svg>
